<svg width="142" height="42" viewBox="0 0 142 42" fill="none" xmlns="http://www.w3.org/2000/svg">
    <g clip-path="url(#clip0)">
        <path d="M25.9479 0.065155L5.29337 5.48697L0.0651855 26.2061L12.0061 10.9733L31.8215 6.00334L25.9479 0.065155Z" fill="white"/>
        <path d="M5.29273 5.48638L0 26.27L14.8455 41.18L7.81 23.0427L13.1027 3.48547L5.29273 5.48638Z" fill="white"/>
        <path d="M41.1155 15.2973L25.8827 0L5.29272 5.55091L24.4627 8.45546L39.05 23.0427L41.1155 15.2973Z" fill="white"/>
        <path d="M0 26.27L14.9745 41.3091L35.6291 35.7582L16.4591 32.7891L2.00091 18.3954L0 26.27Z" fill="white"/>
        <path d="M14.9745 41.2445L35.6291 35.7582L41.1154 15.2327L28.9163 30.3364L9.10089 35.3064L14.9745 41.2445Z" fill="white"/>
        <path d="M35.5646 35.7582L41.1155 15.2973L26.0118 0.129089L33.0473 18.2664L27.8191 37.8236L35.5646 35.7582Z" fill="white"/>
        <path opacity="0.5" d="M25.9479 0.065155L5.29337 5.48697L0.0651855 26.2061L12.0061 10.9733L31.8215 6.00334L25.9479 0.065155Z" fill="url(#paint0_linear)"/>
        <path opacity="0.5" d="M5.29273 5.48638L0 26.27L14.8455 41.18L7.81 23.0427L13.1027 3.48547L5.29273 5.48638Z" fill="url(#paint1_linear)"/>
        <path opacity="0.5" d="M41.1155 15.2973L25.8827 0L5.29272 5.55091L24.4627 8.45546L39.05 23.0427L41.1155 15.2973Z" fill="url(#paint2_linear)"/>
        <path opacity="0.5" d="M0 26.27L14.9745 41.3091L35.6291 35.7582L16.4591 32.7891L2.00091 18.3954L0 26.27Z" fill="url(#paint3_linear)"/>
        <path opacity="0.5" d="M14.9745 41.2445L35.6291 35.7582L41.1154 15.2327L28.9163 30.3364L9.10089 35.3064L14.9745 41.2445Z" fill="url(#paint4_linear)"/>
        <path opacity="0.5" d="M35.5646 35.7582L41.1155 15.2973L26.0118 0.129089L33.0473 18.2664L27.8191 37.8236L35.5646 35.7582Z" fill="url(#paint5_linear)"/>
        <path d="M106.952 35.1127V22.5264L111.147 35.1127H118.312L121.023 27.0445C121.087 27.4964 121.216 27.8836 121.281 28.3355C123.024 34.4673 128.123 36.8555 134.125 35.1773C135.029 34.9191 135.933 34.5318 136.836 34.08C136.836 34.2091 136.772 34.4027 136.772 34.5318C136.772 35.9518 137.934 37.1782 139.418 37.1782C140.838 37.1782 142.064 36.0164 142.064 34.5318C142.064 33.1764 140.967 32.0145 139.612 31.8855C140.967 30.4009 141.613 28.4645 141.548 26.4636L135.933 28.0773C135.674 29.5618 134.577 30.7236 133.093 31.1109C130.575 31.8209 128.639 30.5945 127.8 28.1418L141.225 24.2691C139.741 18.0082 135.029 14.0064 128.445 15.8782C126.767 16.33 125.218 17.2336 123.927 18.46L124.702 16.0718H118.376L114.891 28.6582H114.826L111.341 16.0718H104.822L105.274 17.3627C103.595 15.8782 100.884 15.4909 98.1736 15.4909C96.1081 15.4264 93.9781 15.8782 92.1063 16.7818L92.0418 16.8464L92.2999 16.0073H85.9745L82.8763 28.2709H82.8118L80.0363 16.0073H74.0981L71.2581 28.4H71.1936L68.0309 16.0718H61.7054L62.0927 17.2982C60.4145 15.8782 57.7681 15.4909 55.0572 15.4909C52.9918 15.4264 50.8618 15.8782 48.9899 16.7818C47.1827 17.8145 46.0209 19.7509 46.0209 21.8809H51.8299C52.0881 20.2673 53.2499 19.4927 54.9281 19.4927C56.219 19.4927 57.9618 20.0736 57.9618 21.4936C57.9618 22.6555 57.3809 23.0427 56.2836 23.2364C51.959 24.14 45.1818 23.6236 45.1818 29.82C45.1818 33.7573 48.0218 35.5645 51.6363 35.5645C53.8954 35.5645 56.2836 34.9191 57.8972 33.2409C57.8972 33.3055 57.8972 33.37 57.8972 33.4345V35.0482H63.7063V23.0427L67.4499 35.1127H73.7754L76.7445 22.4618H76.809L79.9072 35.1127H86.2327L90.299 21.9455H94.8172C95.0754 20.3318 96.2372 19.5573 97.9154 19.5573C99.2063 19.5573 100.884 20.1382 100.884 21.5582C100.884 22.72 100.304 23.1073 99.2063 23.3009C94.8818 24.2045 88.1045 23.6882 88.1045 29.8845C88.1045 33.8218 90.9445 35.6291 94.6236 35.6291C96.8827 35.6291 99.2709 34.9836 100.884 33.3055C100.884 33.37 100.884 33.4345 100.884 33.4991V35.1127H106.952ZM54.1536 31.8209C52.7336 31.8209 51.5718 31.1755 51.5718 29.6909C51.5718 28.2064 52.7336 27.6255 54.1536 27.2382C55.5736 26.8509 57.1227 26.7864 58.0263 26.2055C58.0909 30.1427 57.1227 31.8209 54.1536 31.8209ZM97.2054 31.8209C95.7854 31.8209 94.6236 31.1755 94.6236 29.6909C94.6236 28.2064 95.7854 27.6255 97.2054 27.2382C98.6254 26.8509 100.174 26.7864 101.078 26.2055C101.143 30.1427 100.174 31.8209 97.2054 31.8209ZM129.607 19.9445C131.608 19.3636 133.544 20.6545 134.254 22.6555L126.832 24.7855C126.509 22.4618 127.477 20.5255 129.607 19.9445Z" fill="black"/>
    </g>
    <defs>
        <linearGradient id="paint0_linear" x1="18.8362" y1="18.9522" x2="5.33982" y2="5.45586" gradientUnits="userSpaceOnUse">
            <stop stop-color="#ED2927"/>
            <stop offset="1" stop-color="#FDCE0E"/>
        </linearGradient>
        <linearGradient id="paint1_linear" x1="23.8103" y1="32.1591" x2="1.21309" y2="9.56192" gradientUnits="userSpaceOnUse">
            <stop stop-color="#ED2927"/>
            <stop offset="1" stop-color="#FDCE0E"/>
        </linearGradient>
        <linearGradient id="paint2_linear" x1="37.4227" y1="24.6009" x2="11.7984" y2="-1.02345" gradientUnits="userSpaceOnUse">
            <stop stop-color="#ED2927"/>
            <stop offset="1" stop-color="#FDCE0E"/>
        </linearGradient>
        <linearGradient id="paint3_linear" x1="29.061" y1="42.2829" x2="3.55935" y2="16.7812" gradientUnits="userSpaceOnUse">
            <stop stop-color="#ED2927"/>
            <stop offset="1" stop-color="#FDCE0E"/>
        </linearGradient>
        <linearGradient id="paint4_linear" x1="35.5558" y1="35.7816" x2="22.0789" y2="22.3047" gradientUnits="userSpaceOnUse">
            <stop stop-color="#ED2927"/>
            <stop offset="1" stop-color="#FDCE0E"/>
        </linearGradient>
        <linearGradient id="paint5_linear" x1="39.6271" y1="31.6976" x2="17.046" y2="9.11654" gradientUnits="userSpaceOnUse">
            <stop stop-color="#ED2927"/>
            <stop offset="1" stop-color="#FDCE0E"/>
        </linearGradient>
        <clipPath id="clip0">
            <rect width="142" height="41.2445" fill="white"/>
        </clipPath>
    </defs>
</svg>
