<svg width="469" height="302" viewBox="0 0 469 302" fill="none" xmlns="http://www.w3.org/2000/svg">
    <g clip-path="url(#clip0)">
        <path d="M204.817 286.887C212.828 289.176 221.191 284.51 223.479 276.5L235.451 234.158C237.74 226.147 233.075 217.784 225.064 215.495C217.053 213.207 208.691 217.872 206.402 225.883L194.43 268.225C192.141 276.236 196.807 284.598 204.817 286.887Z" fill="#FFC12D"/>
        <path d="M221.895 286.535C227.881 280.725 227.969 271.13 222.071 265.232L191.261 233.806C185.451 227.82 175.855 227.732 169.958 233.629C163.972 239.439 163.884 249.035 169.781 254.933L200.592 286.359C206.402 292.257 215.909 292.345 221.895 286.535Z" fill="#FFC12D"/>
        <path d="M160.626 226.235C156.577 232.309 158.25 240.496 164.324 244.545C170.398 248.594 178.584 246.922 182.634 240.848C186.683 234.774 185.011 226.587 178.937 222.538C172.863 218.488 164.676 220.161 160.626 226.235Z" fill="#FFADAD"/>
        <path d="M180.433 231.605C182.282 232.045 184.13 230.989 184.658 229.14L185.803 224.563C186.243 222.714 185.187 220.865 183.338 220.337C181.489 219.897 179.641 220.953 179.113 222.802L177.968 227.379C177.528 229.316 178.673 231.165 180.433 231.605Z" fill="#FFADAD"/>
        <path d="M167.229 215.936L171.894 227.82C172.599 229.668 174.711 230.548 176.56 229.844C178.409 229.14 179.289 227.027 178.585 225.179L173.919 213.295C173.215 211.446 171.102 210.566 169.253 211.27C167.405 212.062 166.525 214.175 167.229 215.936Z" fill="#FFADAD"/>
        <path d="M158.954 218.488L164.588 229.932C165.468 231.693 167.581 232.397 169.341 231.517C171.102 230.637 171.806 228.524 170.926 226.763L165.292 215.319C164.412 213.559 162.299 212.855 160.539 213.735C158.778 214.527 158.074 216.728 158.954 218.488Z" fill="#FFADAD"/>
        <path d="M152.792 224.827L160.715 234.862C161.947 236.446 164.148 236.711 165.732 235.478C167.317 234.246 167.581 232.045 166.348 230.46L158.426 220.425C157.193 218.841 154.993 218.577 153.408 219.809C151.824 221.041 151.56 223.242 152.792 224.827Z" fill="#FFADAD"/>
        <path d="M237.476 200.707L242.582 200.531C246.015 200.354 248.744 197.45 248.568 194.016L247.512 166.727L229.906 167.432L230.962 194.721C231.138 198.154 234.043 200.795 237.476 200.707Z" fill="#FFADAD"/>
        <path d="M229.906 166.463L247.512 165.759L247.776 172.713C248.04 179.492 242.494 185.478 235.716 184.949C235.275 184.949 234.835 184.861 234.483 184.773C233.075 184.509 231.754 183.981 230.522 183.365L229.906 166.463Z" fill="#DA8E8E"/>
        <path d="M236.474 164.491C224.779 161.182 217.359 151.217 219.901 142.236C222.442 133.254 233.983 128.656 245.678 131.966C257.373 135.275 264.793 145.239 262.251 154.221C259.71 163.203 248.169 167.801 236.474 164.491Z" fill="#1B2A67"/>
        <path d="M225.311 159.858C214.671 158.05 206.995 150.99 208.168 144.087C209.34 137.185 218.917 133.055 229.558 134.863C240.199 136.671 247.874 143.732 246.702 150.634C245.529 157.536 235.952 161.666 225.311 159.858Z" fill="#1B2A67"/>
        <path d="M229.692 149.699C221.767 142.372 219.195 132.266 223.947 127.125C228.699 121.984 238.976 123.756 246.901 131.083C254.827 138.409 257.399 148.515 252.647 153.656C247.895 158.797 237.618 157.025 229.692 149.699Z" fill="#1B2A67"/>
        <path d="M219.694 162.062C217.934 171.745 223.039 180.812 231.05 182.22C239.061 183.629 246.983 176.939 248.656 167.167L250.064 159.509C251.825 149.826 246.719 140.759 238.709 139.35C230.698 137.942 222.775 144.632 221.103 154.403L219.694 162.062Z" fill="#FFADAD"/>
        <path d="M236.772 138.294C241.173 134.245 248.92 136.181 254.025 142.607C259.131 149.033 259.659 157.484 255.17 161.446C250.768 165.495 243.022 163.558 237.916 157.132C232.898 150.706 232.37 142.255 236.772 138.294Z" fill="#1B2A67"/>
        <path d="M233.163 176.058H237.916C239.853 176.058 241.702 175.354 243.11 174.034L246.103 171.393C246.367 171.217 246.367 170.777 246.103 170.601C245.927 170.337 245.487 170.337 245.311 170.601L242.318 173.241C241.086 174.298 239.589 174.914 237.916 174.914H233.163C232.811 174.914 232.547 175.178 232.547 175.53C232.635 175.794 232.899 176.058 233.163 176.058Z" fill="#201028"/>
        <path d="M233.163 176.587H235.099C235.715 176.587 236.244 176.058 236.244 175.442C236.244 174.826 235.715 174.298 235.099 174.298H233.163C232.546 174.298 232.018 174.826 232.018 175.442C232.018 176.058 232.546 176.587 233.163 176.587Z" fill="#FFD2D4"/>
        <path d="M239.613 168.698C237.809 163.716 240.385 158.214 245.367 156.41C250.35 154.605 255.851 157.182 257.656 162.164C259.46 167.146 256.884 172.648 251.901 174.453C246.919 176.257 241.417 173.681 239.613 168.698Z" fill="#445EEA"/>
        <path d="M242.584 165.666C242.406 161.149 245.61 157.355 249.739 157.192C253.868 157.03 257.359 160.561 257.537 165.078C257.715 169.596 254.511 173.39 250.382 173.553C246.253 173.715 242.762 170.184 242.584 165.666Z" fill="#91A8F6"/>
        <path d="M248.832 165.407C248.92 167.255 250.152 168.664 251.561 168.664C252.969 168.576 254.114 167.079 254.026 165.231C253.938 163.382 252.705 161.974 251.297 161.974C249.888 161.974 248.832 163.558 248.832 165.407Z" fill="#E0EEF7"/>
        <path d="M225.328 299.827L271.367 301.148C279.026 300.884 285.012 294.37 284.748 286.711L281.843 209.598C281.667 205.548 279.026 202.027 275.153 200.883L240.821 189.967L213.356 203.083C209.923 204.756 207.81 208.277 207.898 212.062L210.803 286.447C211.244 294.194 217.67 300.18 225.328 299.827Z" fill="#FFC12D"/>
        <path d="M207.987 212.062C207.811 220.073 207.899 228.172 208.075 236.182C208.163 244.193 208.427 252.204 208.779 260.214C209.131 268.225 209.483 276.236 210.011 284.246C210.099 286.183 210.187 288.384 210.98 290.408C211.684 292.433 212.828 294.282 214.237 295.69C217.23 298.595 221.367 300.268 225.417 299.827C221.367 299.739 217.582 297.979 215.029 294.986C213.797 293.577 212.828 291.817 212.3 289.968C211.772 288.12 211.772 286.271 211.772 284.246C211.684 276.236 211.42 268.225 211.068 260.214C210.716 252.204 210.363 244.193 209.835 236.182C209.307 228.084 208.779 220.073 207.987 212.062Z" fill="#F4962B"/>
        <path d="M228.233 204.492L253.058 202.907L252.089 188.118C252.001 186.27 250.417 184.861 248.568 185.037L230.346 186.182C228.497 186.27 227.089 187.854 227.265 189.703L228.233 204.492Z" fill="#FFC12D"/>
        <path d="M302.353 277.204C310.012 274.035 313.709 265.144 310.54 257.485L293.639 216.904C290.47 209.245 281.579 205.548 273.92 208.717C266.262 211.886 262.564 220.777 265.733 228.436L282.635 269.017C285.804 276.764 294.607 280.461 302.353 277.204Z" fill="#FFC12D"/>
        <path d="M273.92 208.717C271.191 209.598 268.726 211.358 266.966 213.647C265.205 215.936 264.061 218.841 263.797 221.834C263.357 224.827 264.325 227.908 265.469 230.46L268.638 238.295C270.839 243.489 273.04 248.682 275.417 253.788L278.938 261.447C280.17 264 281.403 266.552 282.723 269.017C281.843 266.288 280.875 263.647 279.994 261.007L277.089 253.084C275.153 247.802 272.952 242.608 270.839 237.327L267.494 229.58C266.966 228.26 266.35 227.115 266.086 225.795C265.734 224.562 265.557 223.242 265.645 221.834C265.557 216.552 268.815 211.358 273.92 208.717Z" fill="#F4962B"/>
        <path d="M232.106 255.989L239.765 255.461C242.67 255.285 244.87 252.82 244.694 249.915L244.43 246.482C244.254 243.577 241.789 241.376 238.884 241.552L231.226 242.08L232.106 255.989ZM239.06 244.985C240.029 244.897 240.909 245.69 240.997 246.658L241.261 250.091C241.349 251.059 240.557 251.94 239.589 252.028L235.363 252.292L234.923 245.249L239.06 244.985Z" fill="#86294E"/>
        <path d="M224.624 266.993L231.314 266.552C235.363 266.288 238.444 262.767 238.18 258.806L236.772 237.415C236.596 235.038 215.381 236.358 215.469 238.823L216.877 260.214C217.053 264.176 220.575 267.257 224.624 266.993Z" fill="#D15E79"/>
        <path d="M217.581 239.351C217.669 240.232 221.543 240.672 226.384 240.32C231.226 239.968 235.099 239.087 235.011 238.207C234.923 237.327 231.05 236.887 226.208 237.239C221.367 237.591 217.493 238.559 217.581 239.351Z" fill="#86294E"/>
        <path d="M310.716 263.647C310.628 255.285 303.762 248.683 295.399 248.771L251.384 249.475C243.022 249.563 236.42 256.429 236.508 264.792C236.596 273.155 243.462 279.757 251.825 279.669L295.839 278.965C304.202 278.877 310.804 272.01 310.716 263.647Z" fill="#FFC12D"/>
        <path d="M295.399 248.859C289.765 248.506 284.131 248.33 278.498 248.242C272.864 248.154 267.23 248.154 261.596 248.242L253.145 248.418C250.416 248.418 247.071 248.859 244.518 250.355C241.877 251.763 239.677 253.964 238.268 256.517C236.86 259.07 236.244 262.063 236.596 264.88C236.948 259.246 240.469 254.14 245.311 251.94C246.543 251.411 247.775 251.059 249.096 250.795C250.416 250.531 251.737 250.619 253.145 250.619L261.596 250.531C267.23 250.443 272.864 250.267 278.498 250.003C284.131 249.739 289.765 249.387 295.399 248.859Z" fill="#F4962B"/>
        <path d="M224.325 269.946C219.668 264.334 220.443 256.009 226.055 251.352C231.667 246.695 239.992 247.469 244.649 253.081C249.306 258.694 248.532 267.019 242.92 271.676C237.307 276.333 228.982 275.558 224.325 269.946Z" fill="#FFADAD"/>
        <path d="M241.349 255.197C243.022 254.668 243.902 252.82 243.286 251.147L241.877 247.098C241.349 245.425 239.501 244.545 237.828 245.161C236.155 245.689 235.275 247.538 235.891 249.211L237.3 253.26C237.916 254.933 239.677 255.813 241.349 255.197Z" fill="#FFADAD"/>
        <path d="M215.997 256.957L227.705 258.014C229.553 258.19 231.138 256.869 231.314 255.021C231.49 253.172 230.17 251.587 228.321 251.411L216.613 250.355C214.765 250.179 213.18 251.499 213.004 253.348C212.916 255.197 214.236 256.781 215.997 256.957Z" fill="#FFADAD"/>
        <path d="M218.55 267.697L230.346 266.905C232.194 266.816 233.515 265.232 233.427 263.383C233.339 261.535 231.754 260.214 229.905 260.302L218.11 261.095C216.261 261.183 214.941 262.767 215.029 264.616C215.117 266.464 216.701 267.873 218.55 267.697Z" fill="#FFADAD"/>
        <path d="M98.9181 227.644C99.2703 227.644 99.6224 227.467 99.8865 227.203C100.415 226.675 100.415 225.795 99.8865 225.267L86.6821 212.062C86.1539 211.534 85.2736 211.534 84.7454 212.062C84.2173 212.59 84.2173 213.471 84.7454 213.999L97.9498 227.203C98.2139 227.467 98.566 227.644 98.9181 227.644Z" fill="white"/>
        <path d="M108.337 219.545C109.13 219.545 109.746 218.929 109.746 218.136V199.474C109.746 198.682 109.13 198.066 108.337 198.066C107.545 198.066 106.929 198.682 106.929 199.474V218.136C106.929 218.929 107.545 219.545 108.337 219.545Z" fill="white"/>
        <path d="M72.2453 236.975H90.9074C91.6997 236.975 92.3159 236.358 92.3159 235.566C92.3159 234.774 91.6997 234.158 90.9074 234.158H72.2453C71.453 234.158 70.8368 234.774 70.8368 235.566C70.8368 236.358 71.453 236.975 72.2453 236.975Z" fill="white"/>
        <path d="M237.652 294.898H123.742C120.573 294.898 119.605 292.345 119.605 289.176H243.374C243.374 292.345 240.821 294.898 237.652 294.898Z" fill="#6EACCE"/>
        <path d="M244.254 289.176H203.849C203.849 292.345 206.754 294.898 210.363 294.898H236.86C236.86 294.898 244.342 294.898 244.43 294.898C248.128 294.898 247.952 289.176 244.254 289.176Z" fill="#6EACCE"/>
        <path d="M201.297 290.848H119.518C117.053 290.848 115.028 289.088 114.588 286.711L103.584 239.439C102.968 236.358 105.345 233.453 108.514 233.453H190.293C192.758 233.453 194.782 235.214 195.223 237.591L206.226 284.862C206.842 287.943 204.466 290.848 201.297 290.848Z" fill="#E0EEF7"/>
        <path d="M195.31 237.503C195.046 236.182 194.342 235.038 193.285 234.334C191.789 235.478 190.909 237.327 191.261 239.351L202.264 286.623C202.528 287.944 203.233 289 204.289 289.792C205.786 288.648 206.666 286.799 206.314 284.774L195.31 237.503Z" fill="#6EACCE"/>
        <path d="M143.813 268.137H157.194C159.923 268.137 162.211 265.936 162.211 263.119C162.211 260.39 160.011 258.102 157.194 258.102H143.813C141.084 258.102 138.796 260.302 138.796 263.119C138.884 265.936 141.084 268.137 143.813 268.137Z" fill="white"/>
        <path d="M232.018 290.76H236.068C236.86 290.76 237.476 290.144 237.476 289.352C237.476 288.56 236.86 287.943 236.068 287.943H232.018C231.226 287.943 230.61 288.56 230.61 289.352C230.61 290.144 231.226 290.76 232.018 290.76Z" fill="#6EACCE"/>
        <path d="M224.184 290.76H228.233C229.025 290.76 229.642 290.144 229.642 289.352C229.642 288.56 229.025 287.944 228.233 287.944H224.184C223.392 287.944 222.775 288.56 222.775 289.352C222.775 290.144 223.392 290.76 224.184 290.76Z" fill="#6EACCE"/>
        <path d="M216.349 290.76H220.399C221.191 290.76 221.807 290.144 221.807 289.352C221.807 288.56 221.191 287.944 220.399 287.944H216.349C215.557 287.944 214.941 288.56 214.941 289.352C214.853 290.144 215.557 290.76 216.349 290.76Z" fill="#6EACCE"/>
        <path d="M208.427 290.76H212.476C213.268 290.76 213.884 290.144 213.884 289.352C213.884 288.56 213.268 287.944 212.476 287.944H208.427C207.634 287.944 207.018 288.56 207.018 289.352C207.018 290.144 207.634 290.76 208.427 290.76Z" fill="#6EACCE"/>
        <path d="M58.5126 301.5H402.707C404.643 301.5 406.14 299.915 406.14 298.067C406.14 296.13 404.555 294.634 402.707 294.634H58.5126C56.576 294.634 55.0795 296.218 55.0795 298.067C55.0795 300.004 56.664 301.5 58.5126 301.5Z" fill="#1B2A67"/>
        <path d="M351.21 273.419C351.21 273.419 353.763 254.404 358.34 249.739" stroke="#1B2A67" stroke-width="0.727913" stroke-miterlimit="10" stroke-linecap="round"/>
        <path d="M357.636 238.383C356.403 242.432 356.667 246.13 358.164 246.57C359.66 247.01 361.949 244.105 363.181 240.056V239.968C364.238 236.358 358.78 234.686 357.636 238.295C357.636 238.295 357.636 238.295 357.636 238.383Z" fill="#FFD2D4"/>
        <path d="M350.33 247.45C354.379 248.682 358.076 248.418 358.516 246.922C358.956 245.425 356.051 243.137 352.002 241.904H351.914C348.305 240.848 346.632 246.306 350.241 247.45C350.241 247.45 350.241 247.45 350.33 247.45Z" fill="#FFD2D4"/>
        <path d="M364.15 251.587C360.101 250.355 357.196 248.154 357.636 246.57C358.076 245.073 361.773 244.809 365.822 246.042H365.911C369.52 247.186 367.847 252.644 364.238 251.587C364.238 251.675 364.238 251.675 364.15 251.587Z" fill="#FFD2D4"/>
        <path d="M357.372 256.253C356.227 252.204 356.58 248.506 358.076 248.066C359.661 247.626 361.773 250.619 362.918 254.668V254.756C363.886 258.366 358.428 259.95 357.372 256.341V256.253Z" fill="#FFD2D4"/>
        <path d="M353.41 255.021C356.579 252.292 358.34 249.035 357.284 247.802C356.227 246.57 352.794 247.89 349.537 250.619L349.449 250.707C346.632 253.172 350.329 257.485 353.234 255.109C353.41 255.109 353.41 255.109 353.41 255.021Z" fill="#FFD2D4"/>
        <path d="M356.227 247.098C355.875 248.154 356.491 249.211 357.548 249.563C358.604 249.915 359.66 249.299 360.013 248.242C360.365 247.186 359.749 246.13 358.692 245.778C357.636 245.425 356.579 246.042 356.227 247.098Z" fill="#D15E79"/>
        <path d="M358.692 261.183C353.41 265.32 350.417 270.338 352.002 272.274C353.586 274.299 359.132 272.538 364.414 268.401C369.696 264.264 371.104 257.309 371.104 257.309C371.104 257.309 363.974 257.045 358.692 261.183Z" fill="#445EEA"/>
        <path d="M340.206 267.433C345.752 272.626 351.914 275.179 353.851 273.067C355.787 270.954 352.882 265.056 347.337 259.774C341.791 254.58 333.692 254.14 333.692 254.14C333.692 254.14 334.66 262.239 340.206 267.433Z" fill="#445EEA"/>
        <path d="M344.255 295.778H362.477L365.646 272.89H341.086L344.255 295.778Z" fill="#1B2A67"/>
        <path d="M340.118 278.7H366.615C367.319 278.7 367.935 278.084 367.935 277.38V271.482C367.935 270.778 367.319 270.162 366.615 270.162H340.118C339.414 270.162 338.798 270.778 338.798 271.482V277.38C338.886 278.172 339.414 278.7 340.118 278.7Z" fill="#1B2A67"/>
        <path d="M297.864 101.674L288.797 111.357L220.046 82.6594L297.864 101.674Z" fill="#445EEA"/>
        <path d="M294.607 69.8071L301.473 80.0185L296.808 90.0538L307.107 91.8144L316.262 111.797L217.846 82.0432L294.607 69.8071Z" fill="#91A8F6"/>
        <path d="M296.808 90.0538L301.473 80.0185L248.128 82.4833L296.808 90.0538Z" fill="#445EEA"/>
        <path d="M302.002 189.439C302.794 189.439 303.498 189.439 304.29 189.439C305.083 189.439 305.699 188.823 305.611 188.03C305.523 187.238 304.907 186.534 304.202 186.71C300.593 186.71 297.072 186.71 293.199 186.534C293.199 186.534 293.199 186.534 293.111 186.534C292.406 186.534 291.79 187.15 291.702 187.854C291.702 188.647 292.23 189.263 293.023 189.263C296.28 189.351 299.185 189.439 302.002 189.439ZM315.382 188.911H315.47C319.255 188.559 323.041 188.118 326.562 187.502C327.354 187.326 327.794 186.622 327.706 185.918C327.53 185.213 326.826 184.685 326.122 184.773C322.6 185.389 318.991 185.83 315.294 186.182C314.502 186.27 313.974 186.886 314.062 187.678C314.062 188.294 314.678 188.911 315.382 188.911ZM337.125 184.861C337.301 184.861 337.389 184.861 337.565 184.773C341.175 183.629 344.696 182.308 348.041 180.724C348.745 180.372 349.009 179.58 348.745 178.875C348.393 178.171 347.601 177.907 346.897 178.171C343.639 179.668 340.206 180.988 336.773 182.044C336.069 182.308 335.629 183.013 335.893 183.805C335.981 184.509 336.509 184.861 337.125 184.861ZM357.108 175.442C357.372 175.442 357.636 175.354 357.9 175.178C361.069 173.065 363.974 170.777 366.791 168.224C367.319 167.696 367.407 166.815 366.879 166.287C366.351 165.759 365.471 165.671 364.943 166.199C362.302 168.664 359.397 170.865 356.404 172.889C355.787 173.329 355.611 174.21 356.052 174.826C356.228 175.266 356.668 175.442 357.108 175.442ZM373.393 160.565C373.833 160.565 374.186 160.389 374.45 160.037C376.826 157.132 378.939 153.963 380.788 150.706C381.14 150.002 380.964 149.209 380.26 148.857C379.555 148.505 378.763 148.681 378.411 149.385C376.65 152.555 374.538 155.548 372.337 158.364C371.897 158.981 371.985 159.861 372.513 160.301C372.777 160.477 373.041 160.565 373.393 160.565ZM384.309 141.375C384.837 141.375 385.365 141.023 385.629 140.495C386.95 136.885 388.006 133.276 388.71 129.579C388.886 128.875 388.358 128.082 387.654 127.994C386.862 127.818 386.158 128.347 386.07 129.051C385.365 132.572 384.397 136.005 383.077 139.438C382.812 140.142 383.165 140.935 383.869 141.199C383.957 141.287 384.133 141.375 384.309 141.375ZM388.71 119.72C389.415 119.72 390.031 119.191 390.119 118.399C390.295 116.11 390.295 113.734 390.295 111.357V110.829C390.295 109.596 390.295 108.452 390.207 107.22C390.207 106.515 389.591 105.899 388.798 105.899C388.798 105.899 388.798 105.899 388.71 105.899C387.918 105.899 387.39 106.603 387.39 107.308C387.39 108.452 387.478 109.684 387.478 110.829V111.357C387.478 113.734 387.39 116.022 387.302 118.223C387.214 119.015 387.83 119.632 388.622 119.72C388.622 119.72 388.622 119.72 388.71 119.72Z" fill="white"/>
        <path d="M377.09 97.8004C379.203 97.8004 381.316 97.8004 383.341 97.7124C384.133 97.7124 384.661 97.0962 384.661 96.3039C384.661 95.5117 384.045 94.9835 383.253 94.9835C379.731 95.0715 376.034 95.0715 372.249 94.9835C371.369 94.8954 370.84 95.5997 370.84 96.3039C370.84 97.0962 371.457 97.7124 372.161 97.7124C373.833 97.8004 375.506 97.8004 377.09 97.8004ZM361.157 97.3603C361.861 97.3603 362.478 96.8321 362.566 96.0398C362.566 95.2476 362.037 94.6314 361.245 94.5433C357.636 94.3673 353.939 94.1032 350.242 93.7511C349.537 93.663 348.833 94.2792 348.745 94.9835C348.657 95.7757 349.273 96.3919 349.977 96.48C353.675 96.9201 357.46 97.1842 361.157 97.3603C361.069 97.3603 361.069 97.3603 361.157 97.3603ZM394.344 97.1842H394.432C398.306 96.9201 402.003 96.48 405.524 95.9518C406.316 95.8638 406.844 95.1595 406.668 94.3673C406.58 93.575 405.876 93.1349 405.084 93.2229C401.651 93.7511 397.953 94.1032 394.168 94.4553C393.376 94.5433 392.848 95.1595 392.936 95.9518C393.024 96.656 393.64 97.1842 394.344 97.1842ZM339.062 95.4236C339.766 95.4236 340.382 94.8954 340.47 94.1912C340.558 93.3989 340.03 92.7827 339.238 92.6947C335.629 92.2546 332.02 91.8144 328.234 91.2862C327.442 91.1982 326.738 91.7264 326.65 92.4306C326.562 93.2229 327.09 93.9271 327.794 94.0151C331.579 94.5433 335.189 95.0715 338.798 95.4236C338.886 95.4236 338.974 95.4236 339.062 95.4236ZM416.263 94.0151C416.351 94.0151 416.44 94.0151 416.528 94.0151C419.168 93.3989 421.809 92.7827 424.274 91.9905C425.33 91.6384 426.387 91.3743 427.355 91.0222C428.059 90.7581 428.5 89.9658 428.235 89.2616C427.971 88.5573 427.179 88.1172 426.475 88.3813C425.507 88.7334 424.45 88.9975 423.482 89.3496C421.105 90.0538 418.552 90.7581 415.911 91.2862C415.207 91.4623 414.679 92.1665 414.855 92.9588C415.119 93.575 415.647 94.0151 416.263 94.0151ZM437.214 86.8848C437.39 86.8848 437.655 86.7968 437.831 86.7087C441.352 85.0362 444.609 83.0995 447.602 80.9868C448.218 80.5467 448.394 79.6664 447.954 79.0502C447.514 78.434 446.634 78.2579 446.017 78.6981C443.2 80.7227 440.031 82.5714 436.686 84.2439C435.982 84.596 435.718 85.3883 436.07 86.0925C436.246 86.6207 436.686 86.8848 437.214 86.8848ZM389.767 85.6524C390.559 85.6524 391.175 85.0362 391.175 84.2439V83.7157C391.175 80.1946 391.351 76.6734 391.615 73.2403C391.703 72.448 391.087 71.8318 390.383 71.7438C389.679 71.6557 388.974 72.2719 388.886 72.9762C388.622 76.4973 388.446 80.1065 388.446 83.7157V84.2439C388.358 85.0362 388.974 85.6524 389.767 85.6524ZM455.084 73.9445C455.436 73.9445 455.789 73.7684 456.141 73.5043C458.694 70.6874 460.982 67.5184 462.743 64.2613C463.095 63.557 462.831 62.7648 462.215 62.4127C461.51 62.0606 460.718 62.3246 460.366 62.9408C458.694 66.0219 456.581 69.0149 454.116 71.6557C453.588 72.1839 453.676 73.0642 454.204 73.5924C454.38 73.8565 454.732 73.9445 455.084 73.9445ZM391.527 63.557C392.231 63.557 392.76 63.1169 392.848 62.4127C393.464 58.6274 394.344 55.1062 395.313 51.7611C395.489 51.0569 395.136 50.2646 394.344 50.0886C393.64 49.8245 392.848 50.2646 392.672 51.0569C391.703 54.49 390.823 58.1873 390.119 62.0606C390.031 62.8528 390.471 63.557 391.263 63.6451C391.351 63.557 391.439 63.557 391.527 63.557ZM465.648 54.7541C466.264 54.7541 466.792 54.314 466.968 53.6978C467.144 53.0816 467.32 52.4654 467.408 51.8492C467.937 49.7365 468.201 47.7118 468.201 45.7752C468.201 44.5427 468.113 43.3984 467.937 42.254C467.849 41.4617 467.144 41.0216 466.352 41.1096C465.56 41.1976 465.12 41.9019 465.208 42.6941C465.384 43.7505 465.472 44.8068 465.472 45.8632C465.472 47.6238 465.208 49.4724 464.768 51.321C464.591 51.9372 464.503 52.5534 464.327 53.0816C464.151 53.7858 464.591 54.5781 465.296 54.7541C465.384 54.7541 465.56 54.7541 465.648 54.7541ZM397.865 42.342C398.394 42.342 398.834 42.0779 399.098 41.5497C400.77 38.1166 402.619 35.0356 404.732 32.3947C405.172 31.7785 405.084 30.8982 404.556 30.4581C403.939 30.0179 403.059 30.106 402.619 30.6341C400.418 33.4511 398.394 36.7081 396.633 40.3173C396.281 41.0216 396.633 41.8138 397.249 42.166C397.513 42.342 397.689 42.342 397.865 42.342ZM462.215 33.7151C462.479 33.7151 462.831 33.6271 463.007 33.4511C463.623 33.0109 463.711 32.1306 463.271 31.5144C461.07 28.6095 458.165 26.0566 454.644 23.8559C454.028 23.5038 453.148 23.6798 452.708 24.296C452.267 24.9122 452.531 25.7925 453.148 26.2327C456.405 28.1693 459.046 30.5461 461.07 33.187C461.422 33.5391 461.775 33.7151 462.215 33.7151ZM411.862 25.5284C412.126 25.5284 412.39 25.4404 412.654 25.2643C415.559 23.3277 418.816 21.9192 422.337 21.0389C423.042 20.8629 423.57 20.0706 423.306 19.3664C423.13 18.6622 422.337 18.222 421.633 18.3981C417.848 19.3664 414.327 20.8629 411.07 22.9756C410.454 23.4157 410.277 24.208 410.63 24.9122C410.982 25.2643 411.422 25.5284 411.862 25.5284ZM443.817 22.0073C444.433 22.0073 444.961 21.6551 445.137 21.0389C445.313 20.3347 444.961 19.5424 444.169 19.3664C440.648 18.31 437.038 17.6938 433.341 17.4297H432.901C432.197 17.4297 431.493 18.046 431.493 18.7502C431.493 19.5424 432.109 20.1587 432.813 20.1587H433.077C436.598 20.4227 440.031 21.0389 443.288 22.0073C443.553 22.0073 443.729 22.0073 443.817 22.0073Z" fill="white"/>
        <path d="M189.324 54.402C191.173 54.402 193.109 54.226 194.87 53.8739C195.574 53.6978 196.102 52.9936 195.926 52.2013C195.75 51.409 195.046 50.9689 194.254 51.1449C191.437 51.7612 188.444 51.8492 185.627 51.409C184.835 51.321 184.13 51.8492 184.042 52.5534C183.954 53.3457 184.482 54.0499 185.187 54.1379C186.595 54.314 187.916 54.402 189.324 54.402ZM176.824 51.1449C177.352 51.1449 177.792 50.8809 178.056 50.4407C178.408 49.7365 178.144 48.9442 177.528 48.5921C174.975 47.1836 172.687 45.335 170.838 43.1343C170.31 42.5181 169.429 42.5181 168.901 42.9582C168.285 43.4864 168.285 44.3667 168.725 44.8949C170.838 47.3597 173.391 49.3844 176.208 50.9689C176.296 51.1449 176.56 51.1449 176.824 51.1449ZM203.057 50.4407C203.321 50.4407 203.585 50.3527 203.761 50.2647C206.49 48.5041 208.867 46.3914 210.891 43.7505C211.331 43.1343 211.243 42.254 210.627 41.8139C210.011 41.3737 209.131 41.4617 208.691 42.0779C206.93 44.3667 204.729 46.3914 202.264 47.8879C201.648 48.328 201.384 49.1203 201.824 49.8245C202.176 50.2647 202.616 50.4407 203.057 50.4407ZM165.028 37.5004C165.204 37.5004 165.38 37.5004 165.468 37.4124C166.172 37.1483 166.525 36.356 166.26 35.6518C165.292 32.9229 164.764 30.106 164.764 27.113C164.764 26.3207 164.148 25.7045 163.355 25.7045C162.563 25.7045 161.947 26.3207 161.947 27.113C161.947 30.3701 162.475 33.5391 163.62 36.6201C163.972 37.1483 164.5 37.5004 165.028 37.5004ZM214.06 36.18C214.676 36.18 215.205 35.8279 215.381 35.2117C216.173 32.6588 216.613 29.9299 216.613 27.201C216.613 26.6728 216.613 26.1447 216.613 25.7045C216.613 24.9123 215.909 24.3841 215.117 24.3841C214.324 24.3841 213.796 25.0883 213.796 25.8806C213.796 26.3207 213.796 26.7609 213.796 27.289C213.796 29.7539 213.444 32.2187 212.74 34.5074C212.476 35.2117 212.916 36.0039 213.62 36.268C213.796 36.18 213.884 36.18 214.06 36.18ZM164.148 22.2714C164.764 22.2714 165.292 21.8312 165.468 21.215C166.172 18.3981 167.405 15.7572 168.989 13.2924C169.43 12.6762 169.253 11.7959 168.637 11.3558C168.021 10.9156 167.141 11.0917 166.701 11.7079C164.852 14.4368 163.532 17.3417 162.739 20.5108C162.563 21.215 163.003 22.0073 163.708 22.1833C163.972 22.2714 164.06 22.2714 164.148 22.2714ZM213.004 18.222C213.18 18.222 213.356 18.222 213.532 18.134C214.236 17.8699 214.588 16.9896 214.236 16.2854C212.916 13.2924 211.155 10.6515 208.867 8.27473C208.338 7.74656 207.458 7.74656 206.93 8.27473C206.402 8.80291 206.402 9.6832 206.93 10.2114C208.955 12.3241 210.539 14.7009 211.772 17.4298C212.036 17.8699 212.476 18.222 213.004 18.222ZM174.359 7.39444C174.623 7.39444 174.887 7.30641 175.151 7.13035C177.528 5.4578 180.169 4.22539 182.986 3.43313C183.69 3.25707 184.13 2.4648 183.954 1.76057C183.778 1.05634 182.986 0.616191 182.282 0.79225C179.113 1.67254 176.208 2.99298 173.567 4.92962C172.951 5.36977 172.775 6.25006 173.215 6.86626C173.479 7.21838 173.919 7.39444 174.359 7.39444ZM200.504 5.19371C201.032 5.19371 201.472 4.92962 201.736 4.40145C202.088 3.69721 201.824 2.90495 201.12 2.55283C198.215 1.14437 195.046 0.264074 191.877 -1.31428e-05C191.173 -0.0880423 190.468 0.528162 190.38 1.2324C190.292 2.02466 190.909 2.64086 191.613 2.72889C194.518 2.99298 197.335 3.78524 199.976 5.01765C200.152 5.19371 200.328 5.19371 200.504 5.19371Z" fill="white"/>
        <path d="M189.324 14.0847C199.272 14.0847 207.37 19.4545 207.37 26.0567C207.37 27.8172 205.962 28.9616 204.729 28.4334L199.976 26.4088C198.831 25.8806 198.303 24.2961 198.831 22.8876L199.448 21.3031C199.448 21.3031 190.733 22.8876 179.289 21.3031L179.905 23.3278C180.257 24.6482 179.817 26.0567 178.849 26.5848L174.183 29.1377C173.039 29.7539 171.718 28.9616 171.454 27.3771C171.366 26.9369 171.366 26.4968 171.366 26.0567C171.19 19.3664 179.289 14.0847 189.324 14.0847Z" fill="#445EEA"/>
        <path d="M176.736 40.2293H201.824L198.127 28.6095C197.423 26.4088 195.398 24.9123 193.109 24.9123H185.539C183.25 24.9123 181.226 26.4088 180.521 28.6095L176.736 40.2293Z" fill="#91A8F6"/>
        <path d="M134.608 145.148C136.457 145.148 138.393 144.972 140.154 144.619C140.858 144.443 141.386 143.739 141.21 142.947C141.034 142.243 140.33 141.714 139.538 141.891C136.721 142.507 133.728 142.595 130.911 142.155C130.118 142.067 129.414 142.595 129.326 143.299C129.238 144.091 129.766 144.795 130.471 144.884C131.879 144.972 133.287 145.148 134.608 145.148ZM122.108 141.891C122.636 141.891 123.076 141.626 123.34 141.186C123.692 140.482 123.428 139.69 122.812 139.338C120.259 137.929 117.97 136.081 116.122 133.88C115.594 133.264 114.713 133.264 114.185 133.704C113.569 134.232 113.569 135.112 114.009 135.64C116.122 138.105 118.675 140.13 121.492 141.714C121.668 141.802 121.932 141.891 122.108 141.891ZM148.428 141.186C148.693 141.186 148.957 141.098 149.133 141.01C151.862 139.25 154.238 137.137 156.263 134.496C156.703 133.88 156.615 133 155.999 132.559C155.383 132.119 154.503 132.207 154.062 132.824C152.302 135.112 150.101 137.137 147.636 138.633C147.02 139.074 146.756 139.866 147.196 140.57C147.548 140.922 147.988 141.186 148.428 141.186ZM110.4 128.246C110.576 128.246 110.752 128.246 110.84 128.158C111.544 127.894 111.896 127.102 111.632 126.397C110.664 123.668 110.136 120.764 110.136 117.859C110.136 117.066 109.52 116.45 108.727 116.45C107.935 116.45 107.319 117.066 107.319 117.859C107.319 121.116 107.847 124.285 108.991 127.366C109.256 127.894 109.784 128.246 110.4 128.246ZM159.344 126.838C159.96 126.838 160.489 126.485 160.665 125.869C161.457 123.316 161.897 120.587 161.897 117.859C161.897 117.33 161.897 116.802 161.897 116.362C161.897 115.57 161.105 115.042 160.4 115.042C159.608 115.042 159.08 115.746 159.08 116.538C159.08 116.978 159.08 117.418 159.08 117.947C159.08 120.411 158.728 122.876 158.024 125.165C157.76 125.869 158.2 126.661 158.904 126.926C159.08 126.838 159.256 126.838 159.344 126.838ZM109.52 113.017C110.136 113.017 110.664 112.577 110.84 111.961C111.544 109.144 112.777 106.503 114.361 104.038C114.801 103.422 114.625 102.541 114.009 102.101C113.393 101.661 112.513 101.837 112.072 102.453C110.224 105.094 108.903 108.087 108.111 111.256C107.935 111.961 108.375 112.753 109.079 112.929C109.255 112.929 109.432 113.017 109.52 113.017ZM158.376 108.88C158.552 108.88 158.728 108.88 158.904 108.792C159.608 108.527 159.96 107.647 159.608 106.943C158.288 103.95 156.527 101.309 154.238 98.9323C153.71 98.4041 152.83 98.4041 152.302 98.9323C151.774 99.4604 151.774 100.341 152.302 100.869C154.326 102.982 155.911 105.358 157.143 108.087C157.319 108.527 157.848 108.88 158.376 108.88ZM119.643 98.14C119.907 98.14 120.171 98.052 120.435 97.8759C122.812 96.2034 125.453 94.971 128.27 94.1787C128.974 94.0026 129.414 93.2104 129.238 92.5061C129.062 91.8019 128.27 91.3618 127.566 91.5378C124.397 92.4181 121.492 93.7385 118.851 95.6752C118.234 96.1153 118.058 96.9956 118.499 97.6118C118.851 97.8759 119.203 98.14 119.643 98.14ZM145.876 95.9393C146.404 95.9393 146.844 95.6752 147.108 95.147C147.46 94.4428 147.196 93.6505 146.492 93.2984C143.587 91.8899 140.418 91.0096 137.249 90.7456C136.457 90.6575 135.84 91.2737 135.752 91.978C135.664 92.7702 136.28 93.3864 136.985 93.4745C139.89 93.7385 142.707 94.5308 145.347 95.7632C145.435 95.8513 145.7 95.9393 145.876 95.9393Z" fill="white"/>
        <path d="M118.763 112.929H150.893V131.151H118.763V112.929Z" fill="#91A8F6"/>
        <path d="M123.252 111.52V109.32C123.252 107.647 121.932 106.327 120.259 106.327C118.587 106.327 117.266 107.647 117.266 109.32V113.017H123.164" fill="#445EEA"/>
        <path d="M123.164 109.232V128.158H145.083V109.232C145.083 107.559 143.763 106.239 142.09 106.239H120.435L121.051 106.327C122.284 106.767 123.164 107.911 123.164 109.232Z" fill="#E0EEF7"/>
        <path d="M138.833 109.32H143.675V114.337H138.833V109.32Z" fill="#445EEA"/>
        <path d="M137.337 109.32H125.013" stroke="#445EEA" stroke-width="0.57888" stroke-miterlimit="10" stroke-linecap="round" stroke-linejoin="round"/>
        <path d="M137.337 110.992H125.013" stroke="#445EEA" stroke-width="0.57888" stroke-miterlimit="10" stroke-linecap="round" stroke-linejoin="round"/>
        <path d="M137.337 112.665H125.013" stroke="#445EEA" stroke-width="0.57888" stroke-miterlimit="10" stroke-linecap="round" stroke-linejoin="round"/>
        <path d="M137.249 114.337H124.925" stroke="#445EEA" stroke-width="0.57888" stroke-miterlimit="10" stroke-linecap="round" stroke-linejoin="round"/>
        <path d="M143.675 116.01H125.013" stroke="#445EEA" stroke-width="0.57888" stroke-miterlimit="10" stroke-linecap="round" stroke-linejoin="round"/>
        <path d="M143.675 117.682H125.013" stroke="#445EEA" stroke-width="0.57888" stroke-miterlimit="10" stroke-linecap="round" stroke-linejoin="round"/>
        <path d="M143.675 119.355H125.013" stroke="#445EEA" stroke-width="0.57888" stroke-miterlimit="10" stroke-linecap="round" stroke-linejoin="round"/>
        <path d="M143.675 121.028H134.608" stroke="#445EEA" stroke-width="0.57888" stroke-miterlimit="10" stroke-linecap="round" stroke-linejoin="round"/>
        <path d="M126.685 131.151H150.893V112.929L126.685 131.151Z" fill="#445EEA"/>
        <path d="M143.059 131.151H118.851V112.929L143.059 131.151Z" fill="#445EEA"/>
        <path d="M118.851 131.151H134.872H150.893L136.456 123.492C135.488 122.788 134.168 122.788 133.199 123.492L118.851 131.151Z" fill="#445EEA"/>
    </g>
    <defs>
        <clipPath id="clip0">
            <rect width="467.699" height="301.5" fill="white" transform="matrix(-1 0 0 1 468.201 0)"/>
        </clipPath>
    </defs>
</svg>
